<svg id="Layer_1" data-name="Layer 1" xmlns="http://www.w3.org/2000/svg" viewBox="0 0 682.75 578"><defs><style>.cls-1{fill:#fff;}</style></defs><title>Untitled-11x</title><polygon points="33.67 169.56 0.61 2.5 643.81 0.5 682.16 277.39 33.67 169.56"/><path class="cls-1" d="M802,212l38.2,275.79L192.72,380.13,159.84,214,802,212m.88-1-644.25,2,33.25,168,649.5,108-38.5-278Z" transform="translate(-158.63 -211)"/><polygon points="0.59 300.6 649.08 408.44 682.14 575.5 38.94 577.5 0.59 300.6"/><path class="cls-1" d="M159.8,512.21,807.28,619.87,840.16,786,198,788,159.8,512.21M158.63,511l38.49,278,644.25-2L808.13,619,158.63,511Z" transform="translate(-158.63 -211)"/></svg>